<svg width="109" height="39" viewBox="0 0 109 39" fill="none" xmlns="http://www.w3.org/2000/svg">
<path d="M15.752 4.01599V4.97599C14.664 5.00799 13.832 5.13599 13.256 5.35999C12.712 5.55199 12.344 5.93599 12.152 6.51199C11.96 7.05599 11.864 7.91999 11.864 9.10399V33.488C11.864 34.48 11.928 35.216 12.056 35.696C12.216 36.176 12.504 36.496 12.92 36.656C13.368 36.816 14.024 36.896 14.888 36.896H17.24C18.328 36.896 19.352 36.64 20.312 36.128C21.272 35.616 22.136 34.896 22.904 33.968C23.672 33.008 24.312 31.872 24.824 30.56C25.336 29.248 25.72 27.792 25.976 26.192H27.08C26.984 27.28 26.936 28.688 26.936 30.416C26.936 31.152 26.952 32.224 26.984 33.632C27.016 35.04 27.112 36.496 27.272 38C25.64 37.936 23.8 37.904 21.752 37.904C19.704 37.872 17.88 37.856 16.28 37.856C15.48 37.856 14.456 37.856 13.208 37.856C11.96 37.856 10.616 37.872 9.17596 37.904C7.73596 37.904 6.27996 37.92 4.80796 37.952C3.33596 37.952 1.94396 37.968 0.631958 38V37.04C1.65596 36.976 2.42396 36.848 2.93596 36.656C3.44796 36.464 3.78396 36.08 3.94396 35.504C4.13596 34.928 4.23196 34.064 4.23196 32.912V9.10399C4.23196 7.91999 4.13596 7.05599 3.94396 6.51199C3.78396 5.93599 3.43196 5.55199 2.88796 5.35999C2.37596 5.13599 1.62396 5.00799 0.631958 4.97599V4.01599C1.43196 4.04799 2.50396 4.07999 3.84796 4.11199C5.22396 4.14399 6.67996 4.15999 8.21596 4.15999C9.62396 4.15999 11 4.14399 12.344 4.11199C13.72 4.07999 14.856 4.04799 15.752 4.01599Z" fill="#0B0C12"/>
<path d="M41.8797 12.512C44.2157 12.512 46.2637 12.944 48.0237 13.808C49.7837 14.672 51.1597 16.064 52.1517 17.984C53.1437 19.904 53.6397 22.448 53.6397 25.616C53.6397 28.784 53.1437 31.328 52.1517 33.248C51.1597 35.136 49.7837 36.512 48.0237 37.376C46.2637 38.24 44.2157 38.672 41.8797 38.672C39.6077 38.672 37.5757 38.24 35.7837 37.376C34.0237 36.512 32.6317 35.136 31.6077 33.248C30.6157 31.328 30.1197 28.784 30.1197 25.616C30.1197 22.448 30.6157 19.904 31.6077 17.984C32.6317 16.064 34.0237 14.672 35.7837 13.808C37.5757 12.944 39.6077 12.512 41.8797 12.512ZM41.8797 13.472C40.5997 13.472 39.5277 14.432 38.6637 16.352C37.7997 18.24 37.3677 21.328 37.3677 25.616C37.3677 29.904 37.7997 32.992 38.6637 34.88C39.5277 36.768 40.5997 37.712 41.8797 37.712C43.1917 37.712 44.2637 36.768 45.0957 34.88C45.9597 32.992 46.3917 29.904 46.3917 25.616C46.3917 21.328 45.9597 18.24 45.0957 16.352C44.2637 14.432 43.1917 13.472 41.8797 13.472Z" fill="#0B0C12"/>
<path d="M73.1003 12.512C75.5963 12.512 77.6603 13.536 79.2923 15.584C80.9563 17.6 81.7883 20.72 81.7883 24.944C81.7883 28.272 81.2763 30.944 80.2523 32.96C79.2603 34.976 77.9323 36.432 76.2683 37.328C74.6043 38.224 72.7803 38.672 70.7963 38.672C69.4843 38.672 68.2683 38.448 67.1483 38C66.0283 37.552 65.0683 36.816 64.2683 35.792L64.9403 35.552C65.5163 36.256 66.1883 36.784 66.9563 37.136C67.7563 37.488 68.5403 37.664 69.3083 37.664C71.0683 37.664 72.3803 36.672 73.2443 34.688C74.1083 32.704 74.5403 29.68 74.5403 25.616C74.5403 22.864 74.3643 20.688 74.0123 19.088C73.6923 17.456 73.2123 16.304 72.5723 15.632C71.9323 14.928 71.1643 14.576 70.2683 14.576C69.1483 14.576 68.1243 15.04 67.1963 15.968C66.2683 16.864 65.7403 18.128 65.6123 19.76L65.3723 18.08C65.9483 16.256 66.9243 14.88 68.3003 13.952C69.6763 12.992 71.2763 12.512 73.1003 12.512ZM65.7563 0.463989V37.04C64.9563 36.912 64.1403 36.912 63.3083 37.04C62.4763 37.168 61.7083 37.392 61.0043 37.712C60.3003 38 59.7083 38.352 59.2283 38.768L58.5083 38.336C58.6363 37.888 58.7163 37.44 58.7483 36.992C58.8123 36.544 58.8443 36.096 58.8443 35.648V6.22399C58.8443 4.78399 58.6203 3.72799 58.1723 3.05599C57.7563 2.35199 56.9563 1.99999 55.7723 1.99999V0.991991C56.7963 1.08799 57.7883 1.13599 58.7483 1.13599C60.0603 1.13599 61.3083 1.08799 62.4923 0.991991C63.6763 0.863991 64.7643 0.68799 65.7563 0.463989Z" fill="#0B0C12"/>
<path d="M97.1453 12.512C99.4813 12.512 101.529 12.944 103.289 13.808C105.049 14.672 106.425 16.064 107.417 17.984C108.409 19.904 108.905 22.448 108.905 25.616C108.905 28.784 108.409 31.328 107.417 33.248C106.425 35.136 105.049 36.512 103.289 37.376C101.529 38.24 99.4813 38.672 97.1453 38.672C94.8733 38.672 92.8413 38.24 91.0493 37.376C89.2893 36.512 87.8973 35.136 86.8733 33.248C85.8813 31.328 85.3853 28.784 85.3853 25.616C85.3853 22.448 85.8813 19.904 86.8733 17.984C87.8973 16.064 89.2893 14.672 91.0493 13.808C92.8413 12.944 94.8733 12.512 97.1453 12.512ZM97.1453 13.472C95.8653 13.472 94.7933 14.432 93.9293 16.352C93.0653 18.24 92.6333 21.328 92.6333 25.616C92.6333 29.904 93.0653 32.992 93.9293 34.88C94.7933 36.768 95.8653 37.712 97.1453 37.712C98.4573 37.712 99.5293 36.768 100.361 34.88C101.225 32.992 101.657 29.904 101.657 25.616C101.657 21.328 101.225 18.24 100.361 16.352C99.5293 14.432 98.4573 13.472 97.1453 13.472Z" fill="#0B0C12"/>
</svg>
